<?xml version="1.0" encoding="UTF-8" standalone="no"?>
<!-- Created with Inkscape (http://www.inkscape.org/) -->

<svg
   xmlns:dc="http://purl.org/dc/elements/1.1/"
   xmlns:cc="http://creativecommons.org/ns#"
   xmlns:rdf="http://www.w3.org/1999/02/22-rdf-syntax-ns#"
   xmlns:svg="http://www.w3.org/2000/svg"
   xmlns="http://www.w3.org/2000/svg"
   xmlns:sodipodi="http://sodipodi.sourceforge.net/DTD/sodipodi-0.dtd"
   xmlns:inkscape="http://www.inkscape.org/namespaces/inkscape"
   width="528.17999"
   height="528.17603"
   id="svg3029"
   version="1.1"
   inkscape:version="0.47 r22583"
   sodipodi:docname="launcher_icon.svg">
  <defs
     id="defs3031">
    <inkscape:perspective
       sodipodi:type="inkscape:persp3d"
       inkscape:vp_x="0 : 526.18109 : 1"
       inkscape:vp_y="0 : 1000 : 0"
       inkscape:vp_z="744.09448 : 526.18109 : 1"
       inkscape:persp3d-origin="372.04724 : 350.78739 : 1"
       id="perspective3037" />
    <inkscape:perspective
       id="perspective3047"
       inkscape:persp3d-origin="0.5 : 0.33333333 : 1"
       inkscape:vp_z="1 : 0.5 : 1"
       inkscape:vp_y="0 : 1000 : 0"
       inkscape:vp_x="0 : 0.5 : 1"
       sodipodi:type="inkscape:persp3d" />
    <inkscape:perspective
       id="perspective3095"
       inkscape:persp3d-origin="0.5 : 0.33333333 : 1"
       inkscape:vp_z="1 : 0.5 : 1"
       inkscape:vp_y="0 : 1000 : 0"
       inkscape:vp_x="0 : 0.5 : 1"
       sodipodi:type="inkscape:persp3d" />
    <filter
       inkscape:collect="always"
       id="filter3897"
       color-interpolation-filters="sRGB">
      <feGaussianBlur
         inkscape:collect="always"
         stdDeviation="9.62"
         id="feGaussianBlur3899" />
    </filter>
    <inkscape:perspective
       id="perspective2909"
       inkscape:persp3d-origin="0.5 : 0.33333333 : 1"
       inkscape:vp_z="1 : 0.5 : 1"
       inkscape:vp_y="0 : 1000 : 0"
       inkscape:vp_x="0 : 0.5 : 1"
       sodipodi:type="inkscape:persp3d" />
  </defs>
  <sodipodi:namedview
     id="base"
     pagecolor="#ffffff"
     bordercolor="#666666"
     borderopacity="1.0"
     inkscape:pageopacity="0.0"
     inkscape:pageshadow="2"
     inkscape:zoom="0.9899495"
     inkscape:cx="138.56377"
     inkscape:cy="242.91722"
     inkscape:document-units="px"
     inkscape:current-layer="layer1"
     showgrid="false"
     showguides="true"
     inkscape:guide-bbox="true"
     inkscape:window-width="1920"
     inkscape:window-height="1005"
     inkscape:window-x="-9"
     inkscape:window-y="-9"
     inkscape:window-maximized="1" />
  <metadata
     id="metadata3034">
    <rdf:RDF>
      <cc:Work
         rdf:about="">
        <dc:format>image/svg+xml</dc:format>
        <dc:type
           rdf:resource="http://purl.org/dc/dcmitype/StillImage" />
        <dc:title />
      </cc:Work>
    </rdf:RDF>
  </metadata>
  <g
     inkscape:label="Layer 1"
     inkscape:groupmode="layer"
     id="layer1"
     transform="translate(-123.912,-281.28631)">
    <g
       id="g3697">
      <path
         style="fill:#000000;fill-opacity:1;filter:url(#filter3897)"
         d="m 388.002,786.37431 -240,0 0,-241 0,-241 240,0 240,0 0,241 0,241 -240,0 z m -0.5,-36 202.5,0 0,-205 0,-205 -202.5,0 -202.5,0 0,205 0,205 202.5,0 z"
         id="path3075-1" />
      <rect
         ry="0"
         transform="translate(123.912,281.28631)"
         y="25.318886"
         x="32.142857"
         height="439.28561"
         width="431.42841"
         id="rect2923"
         style="opacity:1;fill:#ffffff;fill-opacity:1;stroke:#000000;stroke-width:0;stroke-linecap:butt;stroke-linejoin:miter;stroke-miterlimit:0;stroke-opacity:1;stroke-dasharray:none" />
      <path
         style="fill:#00009b;fill-opacity:1"
         d="m 228.502,705.36218 -22.5,0 0,-45 0,-45 22.5,0 22.5,0 0,45 0,45 -22.5,0 z m 242.5,0 -75,0 0,-15 0,-15 75,0 75,0 0,15 0,15 -75,0 z m -220,-255 -45,0 0,-45 0,-45 45,0 45,0 0,45 0,45 -45,0 z m 250,-25 -45,0 0,-37.5 0,-37.5 45,0 45,0 0,37.5 0,37.5 -45,0 z"
         id="path3079" />
      <path
         style="fill:#9b0000"
         d="m 376.58771,567.21932 -36.3,0 0,-36.3 0,-36.3 36.3,0 36.3,0 0,36.3 0,36.3 -36.3,0 z"
         id="path3077" />
      <path
         style="fill:#000000"
         d="m 376.002,773.36218 -240,0 0,-241 0,-241 240,0 240,0 0,241 0,241 -240,0 z m -0.5,-36 202.5,0 0,-205 0,-205 -202.5,0 -202.5,0 0,205 0,205 202.5,0 z"
         id="path3075" />
      <rect
         ry="0"
         y="340.02176"
         x="451.79001"
         height="90.75"
         width="108.9"
         id="rect3905"
         style="fill:#00009b;fill-opacity:1;stroke:#000000;stroke-width:0;stroke-linejoin:miter;stroke-miterlimit:0;stroke-opacity:1;stroke-dasharray:none" />
      <rect
         ry="0"
         y="600.25537"
         x="204.6344"
         height="108.9"
         width="54.450001"
         id="rect3907"
         style="fill:#00009b;fill-opacity:1;stroke:#000000;stroke-width:0;stroke-linejoin:miter;stroke-miterlimit:0;stroke-opacity:1;stroke-dasharray:none" />
      <rect
         ry="0"
         y="347.03363"
         x="203.14485"
         height="108.89999"
         width="108.9"
         id="rect3909"
         style="fill:#00009b;fill-opacity:1;stroke:#000000;stroke-width:0;stroke-linecap:butt;stroke-linejoin:miter;stroke-miterlimit:0;stroke-opacity:1;stroke-dasharray:none" />
      <rect
         y="674.284"
         x="376.89511"
         height="36.299999"
         width="181.5"
         id="rect3931"
         style="fill:#00009b;fill-opacity:1;stroke:#000000;stroke-width:0;stroke-linecap:butt;stroke-linejoin:miter;stroke-miterlimit:0;stroke-opacity:1;stroke-dasharray:none" />
    </g>
  </g>
</svg>
